<svg width="549" height="381" viewBox="0 0 549 381" fill="none" xmlns="http://www.w3.org/2000/svg">
<g clip-path="url(#clip0)">
<path opacity="0.1" d="M169.517 19.2492C188.143 2.35847 217.384 -1.0809 243.997 0.26328C327.592 4.48715 403.051 45.5108 468.323 91.916C491.953 108.716 515.216 126.836 530.569 149.955C561.796 197.049 552.53 262.292 509.115 301.086C494.343 314.289 476.434 324.406 458.05 333.38C425.364 349.328 390.103 362.129 352.998 365.774C326.542 368.371 299.781 366.252 273.457 362.636C199.974 352.504 127.845 330.108 67.3866 291.773C40.8587 274.963 15.8655 254.064 4.93687 226.855C-5.99172 199.646 1.00258 165.2 28.077 149.103C39.2764 142.445 52.6615 139.441 65.7711 136.613C85.0672 132.461 104.667 128.362 122.082 119.914C140.067 111.189 161.358 94.3126 157.799 74.9966C153.979 54.2886 150.914 36.0873 169.517 19.2492Z" fill="#6C63FF"/>
<path d="M121.973 214.212C121.973 214.212 126.9 210.658 131.998 212.854C131.998 212.854 130.573 215.905 124.22 215.867L121.973 214.212Z" fill="#6C63FF"/>
<path d="M121.36 214.418C121.36 214.418 120.043 220.373 124.054 224.238C124.054 224.238 126.277 221.717 123.75 215.853L121.36 214.418Z" fill="#6C63FF"/>
<path d="M114.845 208.998C114.845 208.998 115.026 203.97 126.334 205.2C126.334 205.2 126.51 208.434 122.624 210.117C118.737 211.801 116.874 210.591 114.845 208.998Z" fill="#6C63FF"/>
<path d="M114.147 208.988C114.147 208.988 109.447 210.71 114.094 221.167C114.094 221.167 117.202 220.34 117.596 216.097C117.991 211.854 116.271 210.452 114.147 208.988Z" fill="#6C63FF"/>
<path d="M107.509 202.124C107.509 202.124 106.558 193.896 118.076 194.298C118.076 194.298 119.174 201.737 109.614 204.028L107.509 202.124Z" fill="#6C63FF"/>
<path d="M99.5594 193.102C99.5594 193.102 100.781 183.693 112.389 186.032C112.389 186.032 112.74 194.116 101.536 195.26L99.5594 193.102Z" fill="#6C63FF"/>
<path d="M93.6437 183.683C93.6437 183.683 95.934 174.456 107.423 176.762C107.423 176.762 105.047 185.061 94.4657 185.339L93.6437 183.683Z" fill="#6C63FF"/>
<path d="M88.0132 174.485C88.0132 174.485 90.2321 164.918 101.318 167.348C101.318 167.348 97.9914 176.47 88.7877 176.068L88.0132 174.485Z" fill="#6C63FF"/>
<path d="M84.2737 165.683C84.2737 165.683 85.8179 154.045 96.1526 156.207C96.1526 156.207 93.5772 166.841 85.0814 167.333L84.2737 165.683Z" fill="#6C63FF"/>
<path d="M80.6767 155.011C80.6767 155.011 82.6106 143.267 93.1021 146.257C93.1021 146.257 89.4529 157.427 81.4607 156.594L80.6767 155.011Z" fill="#6C63FF"/>
<path d="M78.32 145.056C78.32 145.056 81.646 133.26 89.6857 133.265C89.6857 133.265 86.2883 145.702 79.0802 147.367L78.32 145.056Z" fill="#6C63FF"/>
<path d="M76.6949 135.288C76.6949 135.288 80.2728 121.1 86.8395 121.933C86.8395 121.933 84.4019 132.763 77.0085 137.465L76.6949 135.288Z" fill="#6C63FF"/>
<path d="M75.5403 123.607C75.5403 123.607 78.9472 111.772 85.3713 111.055C85.3713 111.055 83.1856 122.655 75.7969 126.64L75.5403 123.607Z" fill="#6C63FF"/>
<path d="M74.3429 112.739C74.3429 112.739 78.7048 100.852 82.9527 100.421C82.9527 100.421 81.3039 112.021 74.8418 114.643L74.3429 112.739Z" fill="#6C63FF"/>
<path d="M73.4259 102.607C73.4259 102.607 75.8967 89.7824 80.1065 88.5674C80.1065 88.5674 79.9212 98.9812 73.8868 103.54L73.4259 102.607Z" fill="#6C63FF"/>
<path d="M71.3209 89.3854C71.3209 89.3854 74.0436 79.139 77.4267 77.46C77.4267 77.46 77.1986 89.4189 72.2 91.8106L71.3209 89.3854Z" fill="#6C63FF"/>
<path d="M69.6579 80.708L68.3512 62.875C68.3512 62.875 75.2885 76.1063 70.2518 83.8413L69.6579 80.708Z" fill="#6C63FF"/>
<path d="M64.0035 63.1524C64.0035 63.1524 58.8766 50.2894 57.7362 49.6054C57.7362 49.6054 67.1443 57.7374 66.6691 68.6343L64.0035 63.1524Z" fill="#6C63FF"/>
<path d="M107.195 202.076C107.195 202.076 98.9988 201.316 99.6877 212.901C99.6877 212.901 107.1 213.825 109.139 204.143L107.195 202.076Z" fill="#6C63FF"/>
<path d="M99.165 192.806C99.165 192.806 89.7474 193.136 90.9638 204.975C90.9638 204.975 98.9227 206.094 101.113 194.973L99.165 192.806Z" fill="#6C63FF"/>
<path d="M93.582 184.458C93.582 184.458 84.8771 180.751 79.8024 191.38C79.8024 191.38 87.8278 194.437 94.3992 186.118L93.582 184.458Z" fill="#6C63FF"/>
<path d="M87.8231 174.58C87.8231 174.58 78.9092 170.62 74.1529 181C74.1529 181 83.3946 183.808 88.6071 176.159L87.8231 174.58Z" fill="#6C63FF"/>
<path d="M84.3925 165.927C84.3925 165.927 75.6591 158.149 69.2492 166.606C69.2492 166.606 78.1109 172.94 84.8486 167.716L84.3925 165.927Z" fill="#6C63FF"/>
<path d="M81.1424 154.714C81.1424 154.714 72.352 146.754 66.0087 155.671C66.0087 155.671 75.7826 162.105 81.513 156.432L81.1424 154.714Z" fill="#6C63FF"/>
<path d="M79.1752 144.678C79.1752 144.678 72.2522 134.585 64.6497 137.187C64.6497 137.187 71.8436 147.883 79.1943 147.113L79.1752 144.678Z" fill="#6C63FF"/>
<path d="M76.8897 135.217C76.8897 135.217 69.8052 122.435 63.6756 124.937C63.6756 124.937 68.7978 134.772 77.1368 137.398L76.8897 135.217Z" fill="#6C63FF"/>
<path d="M75.9632 122.923C75.9632 122.923 68.8073 112.925 62.521 114.422C62.521 114.422 68.4462 124.611 76.7329 125.869L75.9632 122.923Z" fill="#6C63FF"/>
<path d="M75.0509 112.48C75.0509 112.48 69.3728 101.172 65.1059 101.234C65.1059 101.234 68.0566 112.571 74.7705 114.427L75.0509 112.48Z" fill="#6C63FF"/>
<path d="M73.6254 102.349C73.6254 102.349 67.3534 90.9161 62.9724 91.0596C62.9724 91.0596 66.3365 100.914 73.4686 103.382L73.6254 102.349Z" fill="#6C63FF"/>
<path d="M72.2807 90.0455C72.2807 90.0455 67.5529 80.5645 63.9037 79.6126C63.9037 79.6126 66.5313 91.2844 71.8958 92.6238L72.2807 90.0455Z" fill="#6C63FF"/>
<path d="M69.1257 80.3923L58.8196 65.8312C58.8196 65.8312 61.8748 80.4784 70.6557 83.1859L69.1257 80.3923Z" fill="#6C63FF"/>
<path d="M61.8225 64.4392C61.8225 64.4392 50.224 57.0103 49.7488 55.7523C49.7488 55.7523 55.9258 66.5535 66.6929 68.0842L61.8225 64.4392Z" fill="#6C63FF"/>
<path d="M61.01 60.9281C61.01 60.9281 47.5346 48.8496 44.218 48.9931C44.218 48.9931 54.9565 49.0696 61.3236 60.2488L61.01 60.9281Z" fill="#6C63FF"/>
<path d="M72.2237 91.9589L71.7485 92.0403C68.5745 72.8821 64.5784 61.6456 60.5016 60.3923L60.6394 59.9139C64.9538 61.2342 68.9736 72.3081 72.2237 91.9589Z" fill="#444053"/>
<path d="M77.5692 137.824L76.8565 137.91C76.6379 136.121 76.4479 134.284 76.3006 132.456C75.0129 116.551 73.3974 101.961 71.5918 91.0453L71.9861 90.5143C73.7965 101.449 75.7256 116.47 77.018 132.399C77.1653 134.217 77.3506 136.039 77.5692 137.824Z" fill="#444053"/>
<path d="M135.671 222.861C135.543 222.808 122.733 217.632 109.143 204.631C101.185 197.021 94.475 188.189 89.2628 178.465C82.7484 166.31 78.4863 151.222 76.6854 136.479L77.4457 136.805C81.4845 169.897 97.3642 192.016 109.756 203.903C123.213 216.79 135.89 221.914 136.009 221.961L135.671 222.861Z" fill="#444053"/>
<g opacity="0.7">
<path opacity="0.7" d="M141.853 183.903C141.853 183.903 147.607 181.99 151.831 185.611C151.831 185.611 149.565 188.099 143.511 186.157L141.853 183.903Z" fill="#6C63FF"/>
<path opacity="0.7" d="M141.207 183.913C141.207 183.913 138.194 189.208 140.879 194.092C140.879 194.092 143.73 192.356 143.069 185.999L141.207 183.913Z" fill="#6C63FF"/>
<path opacity="0.7" d="M136.584 176.79C136.584 176.79 138.247 172.045 148.676 176.604C148.676 176.604 147.892 179.747 143.678 180.187C139.463 180.627 138.057 178.909 136.584 176.79Z" fill="#6C63FF"/>
<path opacity="0.7" d="M135.923 176.575C135.923 176.575 130.934 176.814 132.274 188.185C132.274 188.185 135.491 188.328 137.12 184.391C138.75 180.455 137.52 178.603 135.923 176.575Z" fill="#6C63FF"/>
<path opacity="0.7" d="M131.618 168.017C131.618 168.017 133.134 159.885 144.015 163.712C144.015 163.712 142.87 171.141 133.063 170.466L131.618 168.017Z" fill="#6C63FF"/>
<path opacity="0.7" d="M126.696 157.015C126.696 157.015 130.639 148.405 141.017 154.107C141.017 154.107 138.964 161.928 127.926 159.665L126.696 157.015Z" fill="#6C63FF"/>
<path opacity="0.7" d="M123.826 146.276C123.826 146.276 128.744 138.144 139.031 143.793C139.031 143.793 134.279 150.997 124.125 148.099L123.826 146.276Z" fill="#6C63FF"/>
<path opacity="0.7" d="M121.17 135.805C121.17 135.805 126.111 127.348 135.99 132.978C135.99 132.978 130.121 140.689 121.455 137.551L121.17 135.805Z" fill="#6C63FF"/>
<path opacity="0.7" d="M120.2 126.281C120.2 126.281 125.113 115.633 134.35 120.799C134.35 120.799 128.748 130.175 120.495 128.103L120.2 126.281Z" fill="#6C63FF"/>
<path opacity="0.7" d="M119.925 115.016C119.925 115.016 125.242 104.382 134.369 110.38C134.369 110.38 127.589 119.947 120.205 116.762L119.925 115.016Z" fill="#6C63FF"/>
<path opacity="0.7" d="M120.623 104.793C120.623 104.793 127.275 94.5277 134.954 96.9386C134.954 96.9386 128.031 107.812 120.661 107.228L120.623 104.793Z" fill="#6C63FF"/>
<path opacity="0.7" d="M121.973 94.9917C121.973 94.9917 129.575 82.521 135.605 85.2811C135.605 85.2811 130.074 94.8912 121.63 97.1634L121.973 94.9917Z" fill="#6C63FF"/>
<path opacity="0.7" d="M124.296 83.4968C124.296 83.4968 131.053 73.217 137.391 74.4559C137.391 74.4559 131.88 84.8793 123.65 86.4674L124.296 83.4968Z" fill="#6C63FF"/>
<path opacity="0.7" d="M126.372 72.7578C126.372 72.7578 134.046 62.7123 138.228 63.5829C138.228 63.5829 133.224 74.1641 126.282 74.7238L126.372 72.7578Z" fill="#6C63FF"/>
<path opacity="0.7" d="M128.487 62.8128C128.487 62.8128 134.635 51.3322 139.016 51.4088C139.016 51.4088 135.757 61.2964 128.653 63.846L128.487 62.8128Z" fill="#6C63FF"/>
<path opacity="0.7" d="M130.383 49.5575C130.383 49.5575 136.013 40.5932 139.739 39.9904C139.739 39.9904 135.985 51.3466 130.511 52.1454L130.383 49.5575Z" fill="#6C63FF"/>
<path opacity="0.7" d="M131.362 40.7749L135.386 23.3533C135.386 23.3533 138.099 38.0627 131.001 43.9225L131.362 40.7749Z" fill="#6C63FF"/>
<path opacity="0.7" d="M131.162 22.3248C131.162 22.3248 130.064 8.50993 129.181 7.49582C129.181 7.49582 135.766 18.0579 132.089 28.3425L131.162 22.3248Z" fill="#6C63FF"/>
<path opacity="0.7" d="M131.328 167.888C131.328 167.888 123.726 164.712 120.965 175.982C120.965 175.982 127.765 179.082 132.573 170.447L131.328 167.888Z" fill="#6C63FF"/>
<path opacity="0.7" d="M126.401 156.632C126.401 156.632 117.311 154.131 114.973 165.798C114.973 165.798 122.243 169.251 127.622 159.287L126.401 156.632Z" fill="#6C63FF"/>
<path opacity="0.7" d="M123.541 146.994C123.541 146.994 116.328 140.847 108.336 149.476C108.336 149.476 115.092 154.8 123.83 148.816L123.541 146.994Z" fill="#6C63FF"/>
<path opacity="0.7" d="M120.965 135.838C120.965 135.838 113.619 129.39 106.017 137.871C106.017 137.871 114.009 143.325 121.246 137.584L120.965 135.838Z" fill="#6C63FF"/>
<path opacity="0.7" d="M120.248 126.554C120.248 126.554 114.204 116.508 105.584 122.66C105.584 122.66 112.175 131.366 120.153 128.4L120.248 126.554Z" fill="#6C63FF"/>
<path opacity="0.7" d="M120.457 114.872C120.457 114.872 114.413 104.64 105.727 111.261C105.727 111.261 113.158 120.349 120.3 116.632L120.457 114.872Z" fill="#6C63FF"/>
<path opacity="0.7" d="M121.54 104.698C121.54 104.698 117.915 92.9922 109.889 93.217C109.889 93.217 113.596 105.587 120.842 107.051L121.54 104.698Z" fill="#6C63FF"/>
<path opacity="0.7" d="M122.153 94.9821C122.153 94.9821 119.169 80.6554 112.579 81.2103C112.579 81.2103 114.565 92.1359 121.749 97.1443L122.153 94.9821Z" fill="#6C63FF"/>
<path opacity="0.7" d="M124.909 82.9706C124.909 82.9706 121.032 71.2797 114.584 70.8252C114.584 70.8252 117.23 82.3296 124.771 86.013L124.909 82.9706Z" fill="#6C63FF"/>
<path opacity="0.7" d="M127.123 72.7243C127.123 72.7243 125.042 60.2296 120.946 59.0098C120.946 59.0098 120.419 70.7152 126.277 74.5037L127.123 72.7243Z" fill="#6C63FF"/>
<path opacity="0.7" d="M128.753 62.6262C128.753 62.6262 126.144 49.8302 121.92 48.6582C121.92 48.6582 122.22 59.072 128.302 63.5638L128.753 62.6262Z" fill="#6C63FF"/>
<path opacity="0.7" d="M131.1 50.4951C131.1 50.4951 129.39 40.0287 126.187 38.0244C126.187 38.0244 125.237 49.9546 129.988 52.8534L131.1 50.4951Z" fill="#6C63FF"/>
<path opacity="0.7" d="M130.948 40.2966L125.408 23.3055C125.408 23.3055 123.982 38.2014 131.585 43.4203L130.948 40.2966Z" fill="#6C63FF"/>
<path opacity="0.7" d="M128.691 22.8988C128.691 22.8988 119.792 12.3224 119.725 10.9878C119.725 10.9878 122.448 23.1524 132.255 27.8355L128.691 22.8988Z" fill="#6C63FF"/>
<path opacity="0.7" d="M128.953 19.3064C128.953 19.3064 119.654 3.73595 116.446 2.87491C116.446 2.87491 126.672 6.17077 129.428 18.7372L128.953 19.3064Z" fill="#6C63FF"/>
<path opacity="0.7" d="M130.492 52.2555L130.017 52.1885C132.645 32.9539 132.155 21.0237 128.629 18.608L128.9 18.211C132.64 20.7797 133.186 32.552 130.492 52.2555Z" fill="#444053"/>
<path opacity="0.7" d="M122.034 97.6992L121.326 97.57C121.649 95.7953 122.011 93.9871 122.41 92.1933C125.883 76.6229 128.653 62.2148 130.15 51.2509L130.687 50.8587C129.185 61.8608 126.586 76.7616 123.113 92.356C122.714 94.1115 122.353 95.9101 122.034 97.6992Z" fill="#444053"/>
<path opacity="0.7" d="M152.383 196.264C152.278 196.178 141.577 187.4 132.426 170.911C127.078 161.263 123.283 150.821 121.184 139.976C118.556 126.42 118.941 110.739 121.583 96.1254L122.21 96.6612C116.294 129.467 124.918 155.346 133.253 170.409C142.281 186.74 152.867 195.427 152.976 195.513L152.383 196.264Z" fill="#444053"/>
</g>
<path d="M481.975 360.732C481.975 360.732 461.885 359.512 464.256 373.686C464.256 373.686 463.781 376.188 466.038 377.326C466.038 377.326 466.076 376.274 468.1 376.633C468.82 376.755 469.552 376.79 470.281 376.738C471.267 376.668 472.204 376.279 472.951 375.628V375.628C472.951 375.628 478.596 373.279 480.791 363.99C480.791 363.99 482.416 361.961 482.355 361.44L478.962 362.875C478.962 362.875 480.121 365.339 479.209 367.381C479.209 367.381 479.1 362.966 478.449 363.076C478.316 363.1 476.686 363.932 476.686 363.932C476.686 363.932 478.682 368.237 477.161 371.337C477.161 371.337 477.731 366.051 476.049 364.238L473.674 365.645C473.674 365.645 476.002 370.074 474.424 373.686C474.424 373.686 474.828 368.142 473.17 365.984L471.008 367.683C471.008 367.683 473.198 372.05 471.863 375.044C471.863 375.044 471.687 368.591 470.542 368.104C470.542 368.104 468.642 369.783 468.361 370.495C468.361 370.495 469.858 373.662 468.931 375.336C468.931 375.336 468.361 371.031 467.891 371.031C467.891 371.031 465.99 373.877 465.81 375.815C465.81 375.815 465.89 372.911 467.435 370.744C466.348 370.95 465.345 371.472 464.55 372.246C464.55 372.246 464.845 370.232 467.877 370.055C467.877 370.055 469.435 367.898 469.853 367.764C469.853 367.764 466.807 367.51 464.964 368.333C464.964 368.333 466.589 366.42 470.409 367.295L472.543 365.54C472.543 365.54 468.537 364.989 466.841 365.597C466.841 365.597 468.794 363.918 473.118 365.143L475.441 363.746C475.441 363.746 472.029 363.004 469.996 363.267C469.996 363.267 472.143 362.1 476.125 363.363L477.788 362.612C477.788 362.612 475.284 362.134 474.553 362.038C473.821 361.942 473.783 361.756 473.783 361.756C475.366 361.49 476.991 361.672 478.477 362.282C478.477 362.282 482.036 360.957 481.975 360.732Z" fill="#6C63FF"/>
<path opacity="0.1" d="M468.138 380.981C475.99 380.981 482.355 379.897 482.355 378.56C482.355 377.224 475.99 376.14 468.138 376.14C460.286 376.14 453.921 377.224 453.921 378.56C453.921 379.897 460.286 380.981 468.138 380.981Z" fill="#6C63FF"/>
<path d="M520.51 323.387C520.51 323.387 509.187 322.703 510.531 330.691C510.462 331.096 510.522 331.513 510.702 331.881C510.882 332.25 511.173 332.552 511.534 332.744C511.534 332.744 511.558 332.15 512.698 332.351C513.104 332.423 513.517 332.443 513.929 332.413C514.484 332.376 515.011 332.156 515.43 331.787V331.787C515.43 331.787 518.614 330.462 519.854 325.224C519.854 325.224 520.771 324.081 520.733 323.789L518.832 324.612C518.832 324.612 519.483 325.999 518.97 327.152C518.97 327.152 518.908 324.659 518.542 324.722C518.466 324.722 517.549 325.2 517.549 325.2C517.549 325.2 518.671 327.62 517.825 329.376C517.825 329.376 518.148 326.396 517.198 325.377L515.853 326.166C515.853 326.166 517.165 328.663 516.276 330.701C516.276 330.701 516.504 327.577 515.568 326.358L514.352 327.314C514.352 327.314 515.582 329.778 514.827 331.466C514.827 331.466 514.727 327.831 514.081 327.553C513.619 327.947 513.206 328.395 512.85 328.888C512.85 328.888 513.696 330.677 513.173 331.619C513.173 331.619 512.85 329.194 512.589 329.185C512.589 329.185 511.524 330.792 511.415 331.892C511.466 330.871 511.782 329.881 512.332 329.022C511.719 329.138 511.152 329.432 510.702 329.869C510.702 329.869 510.869 328.735 512.603 328.635C512.603 328.635 513.482 327.415 513.715 327.343C513.715 327.343 512 327.199 510.959 327.663C510.959 327.663 511.876 326.592 514.028 327.075L515.235 326.09C515.235 326.09 512.974 325.779 512.019 326.123C512.019 326.123 513.121 325.166 515.558 325.865L516.87 325.076C515.861 324.853 514.828 324.763 513.796 324.808C513.796 324.808 515.007 324.152 517.25 324.865L518.2 324.439C518.2 324.439 516.775 324.162 516.376 324.119C515.977 324.076 515.939 323.956 515.939 323.956C516.833 323.806 517.75 323.909 518.59 324.253C518.59 324.253 520.543 323.516 520.51 323.387Z" fill="#6C63FF"/>
<path opacity="0.1" d="M512.712 334.805C517.139 334.805 520.728 334.195 520.728 333.442C520.728 332.689 517.139 332.079 512.712 332.079C508.285 332.079 504.696 332.689 504.696 333.442C504.696 334.195 508.285 334.805 512.712 334.805Z" fill="#6C63FF"/>
<path d="M453.66 330.323C453.66 330.323 439.985 329.491 441.6 339.139C441.517 339.628 441.589 340.131 441.806 340.576C442.024 341.022 442.376 341.386 442.812 341.617C442.812 341.617 442.812 340.904 444.214 341.139C444.705 341.221 445.204 341.247 445.701 341.215C446.371 341.166 447.008 340.901 447.516 340.459V340.459C447.516 340.459 451.36 338.862 452.857 332.533C452.857 332.533 453.964 331.155 453.917 330.801L451.612 331.792C451.612 331.792 452.401 333.471 451.778 334.863C451.778 334.863 451.707 331.854 451.26 331.926C451.17 331.926 450.063 332.504 450.063 332.504C450.063 332.504 451.417 335.427 450.396 337.546C450.396 337.546 450.785 333.949 449.64 332.715L448.015 333.672C448.015 333.672 449.597 336.685 448.524 339.149C448.524 339.149 448.799 335.374 447.673 333.887L446.2 335.04C446.2 335.04 447.692 338.01 446.784 340.053C446.784 340.053 446.666 335.662 445.882 335.327C445.882 335.327 444.594 336.47 444.399 336.939C444.399 336.939 445.416 339.096 444.784 340.235C444.784 340.235 444.399 337.312 444.081 337.297C444.081 337.297 442.798 339.235 442.655 340.565C442.719 339.336 443.101 338.145 443.762 337.111C443.023 337.252 442.341 337.608 441.8 338.135C441.8 338.135 442 336.762 444.081 336.642C444.081 336.642 445.14 335.174 445.425 335.083C445.425 335.083 443.354 334.91 442.099 335.47C442.099 335.47 443.202 334.174 445.801 334.762L447.255 333.571C447.255 333.571 444.532 333.193 443.373 333.609C443.373 333.609 444.703 332.466 447.649 333.298L449.231 332.342C449.231 332.342 446.908 331.835 445.521 332.016C445.521 332.016 446.984 331.227 449.692 332.083L450.828 331.615C450.828 331.615 449.127 331.28 448.628 331.227C448.129 331.175 448.105 331.036 448.105 331.036C449.184 330.855 450.291 330.979 451.303 331.395C451.303 331.395 453.703 330.476 453.66 330.323Z" fill="#6C63FF"/>
<path opacity="0.1" d="M444.242 344.104C449.588 344.104 453.921 343.368 453.921 342.459C453.921 341.55 449.588 340.813 444.242 340.813C438.897 340.813 434.563 341.55 434.563 342.459C434.563 343.368 438.897 344.104 444.242 344.104Z" fill="#6C63FF"/>
<path opacity="0.1" d="M339.295 335.327L291.632 353.892L221.964 381C219.337 376.087 215.46 369.366 210.66 361.387C194.163 333.858 166.861 291.041 142.561 253.413C115.173 211.017 91.6053 175.217 91.6053 175.217L108.668 170.237L248.041 129.543L339.295 335.327Z" fill="black"/>
<path d="M340.245 331.978L292.582 350.543L222.915 377.652C220.287 372.739 216.41 366.018 211.611 358.039C195.113 330.51 167.811 287.692 143.511 250.065C116.123 207.668 92.5556 171.868 92.5556 171.868L109.618 166.888L248.991 126.195L340.245 331.978Z" fill="white"/>
<path opacity="0.1" d="M340.245 331.978L292.582 350.543C265.961 356.125 238.796 358.64 211.611 358.039C195.113 330.51 167.811 287.692 143.511 250.065L109.618 166.888L248.991 126.195L340.245 331.978Z" fill="black"/>
<path d="M375.706 320.431C375.706 320.431 301.658 364.525 191.108 354.576L102.966 138.268L145.203 130.964L291.209 105.721L374.052 316.25L375.706 320.431Z" fill="#6C63FF"/>
<path opacity="0.1" d="M374.052 316.25C356.614 317.111 336.448 317.03 316.15 314.595C294.188 312.002 272.122 306.635 253.163 296.81C237.331 288.596 223.794 279.675 211.986 268.965C181.286 241.163 162.285 201.392 145.222 130.964L291.228 105.721L374.052 316.25Z" fill="black"/>
<path d="M428.367 304.157C428.367 304.157 373.762 314.93 318.236 308.295C296.274 305.688 274.184 300.335 255.249 290.51C239.417 282.296 225.88 273.375 214.072 262.665C176.06 228.223 156.003 175.499 135.315 68.974C135.315 68.974 226.07 91.0213 315.736 42.7266C315.736 42.7266 345.98 232.763 428.367 304.157Z" fill="white"/>
<path opacity="0.1" d="M318.236 308.295C296.274 305.688 274.184 300.335 255.249 290.51C239.417 282.296 225.88 273.375 214.072 262.665C246.425 260.019 251.077 242.21 251.077 242.21C275.063 280.536 318.236 308.295 318.236 308.295Z" fill="black"/>
<path opacity="0.3" d="M182.246 108.084C182.246 108.084 230.997 113.686 276.626 87.8738L279.753 97.9814C279.753 97.9814 236.1 119.895 182.246 119.895V108.084Z" fill="#6C63FF"/>
<path opacity="0.3" d="M182.246 157.972C182.246 157.972 230.712 154.035 284.666 127.783L286.491 131.983C286.491 131.983 266.634 157.14 182.246 163.712V157.972Z" fill="black"/>
<path opacity="0.3" d="M187.991 177.431C187.991 177.431 236.457 173.494 290.411 147.247L292.235 151.447C292.235 151.447 272.383 176.628 187.991 183.205V177.431Z" fill="black"/>
<path opacity="0.3" d="M193.246 198.407C193.246 198.407 241.712 194.47 295.666 168.223L297.49 172.423C297.49 172.423 277.61 197.589 193.246 204.181V198.407Z" fill="black"/>
<path opacity="0.3" d="M199.485 216.384C199.485 216.384 247.951 212.447 301.905 186.2L303.729 190.4C303.729 190.4 283.877 215.571 199.485 222.162V216.384Z" fill="black"/>
<path opacity="0.1" d="M205.234 235.862C205.234 235.862 253.7 231.926 307.654 205.678L309.479 209.878C309.479 209.878 289.622 235.049 205.234 241.636V235.862Z" fill="black"/>
<path opacity="0.3" d="M306.233 114.684L292.672 119.332L297.288 132.985L310.85 128.337L306.233 114.684Z" fill="#6C63FF"/>
<path opacity="0.3" d="M313.949 134.995L300.387 139.643L305.004 153.296L318.565 148.648L313.949 134.995Z" fill="#6C63FF"/>
<path opacity="0.3" d="M326.317 174.077L312.755 178.724L317.372 192.377L330.934 187.73L326.317 174.077Z" fill="#6C63FF"/>
<path opacity="0.3" d="M333.413 195.052L319.851 199.7L324.468 213.353L338.03 208.705L333.413 195.052Z" fill="#6C63FF"/>
<path opacity="0.3" d="M320.239 156.095L306.677 160.743L311.294 174.396L324.856 169.748L320.239 156.095Z" fill="#6C63FF"/>
<path d="M462.042 215.054L461.533 214.576C462.845 214.308 464.08 214.188 464.08 214.188C464.08 214.188 459.58 197.8 451.992 192.332C448.238 189.629 445.112 185.128 442.902 181.268C438.875 174.287 434.351 167.61 429.365 161.287L427.997 159.55L427.408 158.795C428.23 157.541 429.237 156.35 429.123 154.896C429.121 154.887 429.121 154.877 429.123 154.867C429.128 154.791 429.128 154.714 429.123 154.638C429.109 154.458 429.077 154.28 429.028 154.107L428.976 154.188C428.334 152.313 425.868 151.485 424.039 150.452C419.762 148.027 417.933 142.727 417.021 137.8C416.308 133.973 415.719 129.668 412.744 127.204C410.844 125.621 408.259 125.099 406.344 123.526C404.529 122.033 403.517 119.77 402.376 117.69C400.476 114.222 397.967 110.993 394.655 108.921C391.343 106.85 387.138 106.051 383.503 107.438C382.111 107.974 380.847 108.807 379.469 109.385C376.048 110.82 372.128 110.629 368.74 112.146C364.568 114.011 361.855 118.134 359.375 122.047C358.092 124.071 356.077 127.032 354.932 130.012C354.932 129.907 354.932 129.806 354.932 129.701C354.383 131.014 354.083 132.419 354.048 133.844C354.026 134.45 354.091 135.056 354.243 135.642C354.756 137.556 356.286 138.613 358.101 139.35C358.206 139.958 358.346 140.56 358.519 141.153C359.341 143.875 360.802 146.357 362.779 148.39C364.756 150.422 367.19 151.945 369.876 152.83C370.032 152.887 370.194 152.925 370.351 152.973C370.483 153.352 370.674 153.707 370.916 154.025C372.432 155.939 375.473 155.394 377.45 154.002C377.53 153.949 377.606 153.882 377.682 153.825C377.696 154.095 377.724 154.365 377.768 154.633C377.811 154.863 377.844 155.111 377.892 155.317C379.673 164.985 384.235 170.203 384.235 170.203C384.235 170.203 384.658 170.844 385.347 171.906C384.986 177.24 387.404 182.1 390.198 185.855C387.789 187.257 382.596 190.003 379.384 189.773C379.384 189.773 367.581 191.308 366.212 190.538C366.022 190.433 365.842 190.577 365.671 190.902C362.42 188.907 352.029 183.157 351.14 190.538C350.337 197.235 359.807 198.091 364.316 198.125C364.112 200.086 363.998 201.655 363.998 201.655L383.389 200.321L393.486 198.823C392.37 200.311 391.11 201.636 389.88 202.282C389.88 202.282 380.752 209.72 379.174 209.787C378.951 209.787 378.88 210.012 378.913 210.371C375.074 210.371 363.133 210.931 366.445 217.627C369.453 223.698 377.92 219.498 381.75 217.178C382.653 218.943 383.422 220.325 383.422 220.325L399.069 209.108L402.457 206.238C403.605 206.182 404.74 205.961 405.826 205.583C405.826 205.626 405.859 205.669 405.874 205.707C405.995 206.059 406.085 206.42 406.144 206.788C407.095 212.284 403.902 225.104 403.902 225.104C403.902 225.104 396.879 243.133 400.252 245.592C403.626 248.051 401.131 258.426 401.131 258.426C401.72 259.424 402.398 260.365 403.156 261.239V261.239C403.513 261.654 403.909 262.034 404.339 262.373C404.182 262.803 404.052 263.242 403.949 263.688C403.434 265.899 403.628 268.217 404.505 270.309C406.824 275.972 405.413 284.181 405.413 284.181L400.861 315.14C398.675 314.805 395.852 314.528 394.802 315.14C393.192 316.054 393.719 320.66 397.459 322.641C396.323 323.516 395.008 324.125 393.61 324.425C390.284 325.19 387.946 325.678 386.406 325.975C386.307 325.975 378.424 324.224 376.4 325.382C374.375 326.539 375.349 332.959 381.108 334.533C386.744 336.068 407.76 338.321 413.813 337.403L414.198 337.336C419.344 336.312 414.825 329.505 414.255 328.677C414.217 328.4 414.184 328.108 414.146 327.793C414.065 327.085 413.994 326.271 413.942 325.401C419.682 325.932 425.345 326.19 427.945 325.798C428.068 325.798 428.182 325.76 428.287 325.736C432.843 324.827 428.852 318.809 428.339 318.082C428.317 317.897 428.293 317.701 428.268 317.494V317.441C428.268 317.302 428.234 317.154 428.22 317.01C428.206 316.867 428.22 316.766 428.182 316.637C428.144 316.508 428.182 316.408 428.149 316.288C428.13 316.052 428.111 315.808 428.092 315.556C428.092 315.456 428.092 315.351 428.092 315.245C428.092 315.054 428.068 314.863 428.059 314.666C428.059 314.561 428.059 314.456 428.059 314.346C428.059 314.059 428.059 313.762 428.03 313.466C428.03 313.385 428.03 313.303 428.03 313.222C428.03 312.983 428.03 312.744 428.03 312.495C428.03 312.38 428.03 312.265 428.03 312.146C428.03 311.892 428.03 311.639 428.03 311.38C428.03 311.294 428.03 311.213 428.03 311.127C428.03 310.806 428.059 310.476 428.078 310.146L428.106 309.792C428.106 309.548 428.144 309.314 428.168 309.065C428.168 308.945 428.168 308.826 428.206 308.706C428.244 308.371 428.287 308.037 428.334 307.697C428.334 307.596 428.367 307.496 428.382 307.396C428.424 307.142 428.467 306.884 428.515 306.625C428.515 306.501 428.562 306.372 428.591 306.243C428.648 305.965 428.71 305.688 428.776 305.41C428.776 305.334 428.809 305.257 428.828 305.181C428.914 304.846 429.009 304.516 429.109 304.186C429.142 304.071 429.18 303.956 429.218 303.841C429.299 303.593 429.384 303.363 429.474 303.105L429.589 302.799C429.717 302.473 429.855 302.153 429.997 301.842C430.035 301.76 430.078 301.679 430.121 301.598C430.24 301.349 430.368 301.12 430.501 300.861L430.662 300.579C430.843 300.273 431.028 299.967 431.233 299.675C436.459 292.174 437.837 277.709 437.709 274.561C437.581 271.414 438.331 264.884 439.267 263.918C439.895 263.272 443.544 258.178 445.725 254.303C446.119 253.595 446.461 252.93 446.732 252.337C448.281 251.796 449.308 251.38 449.308 251.38C448.762 249.372 448.499 247.296 448.528 245.214C448.566 241.143 449.678 235.781 454.268 231.428C461.044 224.999 461.989 218.627 462.08 216.178C462.08 216.006 462.08 215.853 462.08 215.724C462.065 215.274 462.042 215.054 462.042 215.054Z" fill="url(#paint0_linear)"/>
<path d="M443.986 255.174C442.147 258.481 440.083 261.657 437.809 264.678C436.915 265.635 436.198 272.098 436.322 275.202C436.445 278.307 435.138 292.619 430.144 300.034C425.151 307.448 427.716 320.263 427.716 320.263L419.748 323.076H410.174L403.578 321.091L401.839 316.259C401.839 316.259 404.158 315.901 409.917 314.523C411.514 314.196 412.962 313.351 414.038 312.119C415.115 310.887 415.762 309.334 415.88 307.697L419.924 279.268C419.924 279.268 421.116 272.093 419.149 267.128C418.595 265.73 418.365 264.224 418.477 262.723C418.589 261.223 419.04 259.768 419.796 258.469L419.924 258.269C419.924 258.269 426.163 253.308 432.52 250.203C438.151 247.467 443.862 246.166 445.482 251.021C445.692 251.648 445.007 253.26 443.986 255.174Z" fill="#A5636D"/>
<path opacity="0.05" d="M443.986 255.174C442.147 258.481 440.083 261.657 437.809 264.678C436.915 265.635 436.198 272.098 436.322 275.202C436.445 278.307 435.138 292.619 430.144 300.034C426.628 305.262 426.861 313.165 427.294 317.379C427.479 319.144 427.707 320.249 427.707 320.249L419.739 323.062H410.174L403.578 321.091L401.839 316.259C401.839 316.259 402.419 316.169 403.74 315.91C405.061 315.652 407.066 315.212 409.946 314.523C411.538 314.19 412.979 313.343 414.05 312.112C415.121 310.88 415.763 309.33 415.88 307.697L419.924 279.268C419.924 279.268 421.116 272.093 419.149 267.128C418.595 265.73 418.365 264.224 418.477 262.723C418.589 261.223 419.04 259.768 419.796 258.469L419.924 258.269C419.924 258.269 426.163 253.308 432.52 250.203C438.151 247.467 443.862 246.166 445.482 251.021C445.692 251.648 445.007 253.26 443.986 255.174Z" fill="black"/>
<path opacity="0.1" d="M427.716 320.268L419.748 323.081H410.174L403.578 321.091L401.839 316.259C401.839 316.259 402.419 316.169 403.74 315.91C403.647 316.788 403.876 317.67 404.385 318.389C404.893 319.108 405.646 319.615 406.501 319.814L410.245 319.943C410.772 319.943 411.305 319.972 411.827 319.972C417.094 319.974 422.325 319.1 427.308 317.384C427.498 319.149 427.716 320.268 427.716 320.268Z" fill="black"/>
<path d="M410.24 320.756L406.491 320.627C406.491 320.627 402.994 319.881 403.849 315.886C403.849 315.886 397.102 314.346 395.377 315.365C393.652 316.384 394.484 322.005 399.359 323.382C404.111 324.726 421.91 326.702 427.027 325.894L427.355 325.836C431.993 324.879 427.355 318.182 427.355 318.182C421.853 320.079 416.053 320.951 410.24 320.756Z" fill="#BEBED0"/>
<path d="M433.328 256.274C433.076 256.781 432.805 257.307 432.496 257.857C430.144 262.162 426.372 267.582 425.711 268.285C424.704 269.366 423.901 276.656 424.029 280.177C424.157 283.698 422.694 299.828 417.059 308.199C414.174 312.504 413.523 318.364 413.571 323.081C413.585 324.679 413.679 326.276 413.851 327.864C414.06 329.811 414.327 331.026 414.327 331.026L405.337 334.198H394.517L387.072 331.969L385.123 326.496C385.123 326.496 385.774 326.391 387.238 326.099C388.701 325.807 390.982 325.319 394.242 324.545C396.04 324.17 397.669 323.216 398.88 321.826C400.092 320.436 400.82 318.687 400.956 316.843L405.512 284.76C405.512 284.76 406.857 276.652 404.643 271.055C403.807 268.978 403.621 266.693 404.111 264.506C404.376 263.278 404.859 262.108 405.536 261.053C405.536 261.053 407.275 259.675 409.898 257.852C411.057 257.049 412.402 256.159 413.847 255.26C420.195 251.304 428.543 247.266 432.544 250.208C433.426 250.878 434.073 251.816 434.388 252.882C434.549 253.437 434.098 254.695 433.328 256.274Z" fill="#A5636D"/>
<path opacity="0.1" d="M414.303 331.031L405.313 334.203H394.517L387.072 331.973L385.123 326.501C385.123 326.501 385.774 326.396 387.238 326.104C387.144 326.752 387.211 327.414 387.431 328.03C387.652 328.647 388.019 329.199 388.502 329.639C389.251 330.28 390.199 330.639 391.182 330.653L394.589 330.763C395.182 330.763 395.781 330.797 396.375 330.797C402.321 330.795 408.226 329.806 413.851 327.869C414.06 329.816 414.303 331.031 414.303 331.031Z" fill="black"/>
<path d="M394.584 331.576L391.182 331.462C390.198 331.445 389.249 331.086 388.497 330.447C387.632 329.673 386.886 328.333 387.371 326.08C387.371 326.08 379.768 324.344 377.806 325.492C375.844 326.64 376.803 332.988 382.301 334.542C387.685 336.059 407.755 338.288 413.533 337.379L413.899 337.312C419.126 336.231 413.899 328.663 413.899 328.663C407.69 330.81 401.145 331.797 394.584 331.576V331.576Z" fill="#BEBED0"/>
<path opacity="0.1" d="M443.986 255.174C440.731 256.317 435.951 257.833 433.328 257.895C433.057 257.906 432.785 257.893 432.515 257.857V257.857C430.681 257.604 425.013 258.01 419.815 258.479C417.729 258.666 415.723 258.862 414.065 259.034C411.594 259.292 409.893 259.479 409.893 259.479V257.857C411.053 257.053 412.397 256.164 413.842 255.264C420.19 251.308 428.538 247.271 432.539 250.213C438.17 247.477 443.881 246.176 445.501 251.031C445.692 251.648 445.007 253.26 443.986 255.174Z" fill="black"/>
<path d="M459.604 217.446C459.514 219.871 458.611 226.166 452.139 232.528C443.891 240.636 447.388 252.28 447.388 252.28C447.388 252.28 437.552 256.169 433.309 256.274C433.038 256.284 432.766 256.271 432.496 256.235C429.95 255.877 419.838 256.819 414.027 257.412C411.556 257.671 409.855 257.857 409.855 257.857V223.416L455.437 212.275L459.566 216.412C459.602 216.756 459.615 217.101 459.604 217.446Z" fill="#5C5C8E"/>
<g opacity="0.1">
<path opacity="0.1" d="M410.625 257.431L409.874 257.513V257.876C409.874 257.876 411.575 257.69 414.046 257.431C418.218 257.006 424.59 256.408 428.805 256.231C425.887 255.963 416.251 256.857 410.625 257.431Z" fill="black"/>
<path opacity="0.1" d="M459.585 216.432L455.456 212.289L452.705 212.983L456.164 216.451C456.187 216.796 456.187 217.143 456.164 217.489C456.074 219.909 455.171 226.209 448.699 232.571C440.451 240.675 443.948 252.323 443.948 252.323C443.948 252.323 435.808 255.537 431.147 256.202C431.592 256.201 432.036 256.225 432.477 256.274C432.747 256.312 433.018 256.326 433.29 256.317C437.533 256.212 447.369 252.323 447.369 252.323C447.369 252.323 443.853 240.675 452.12 232.571C458.592 226.209 459.495 219.909 459.585 217.489C459.609 217.137 459.609 216.784 459.585 216.432Z" fill="black"/>
</g>
<path d="M368.517 193.117C368.517 193.117 354.737 183.492 353.725 192.16C352.713 200.828 368.517 199.589 368.517 199.589V193.117Z" fill="#A5636D"/>
<path d="M392.275 186.735C392.275 186.735 384.819 191.701 380.695 191.395C380.695 191.395 369.424 192.916 368.113 192.155C366.801 191.395 366.003 203.157 366.003 203.157L384.534 201.842L396.413 200.014C396.413 200.014 402.353 196.369 402.353 193.227C402.353 190.084 392.275 186.735 392.275 186.735Z" fill="#F7CDDD"/>
<path opacity="0.05" d="M392.275 186.735C392.275 186.735 384.819 191.701 380.695 191.395C380.695 191.395 369.424 192.916 368.113 192.155C366.801 191.395 366.003 203.157 366.003 203.157L384.534 201.842L396.413 200.014C396.413 200.014 402.353 196.369 402.353 193.227C402.353 190.084 392.275 186.735 392.275 186.735Z" fill="black"/>
<path d="M381.341 211.782C381.341 211.782 364.582 211.084 368.336 218.957C372.09 226.831 384.791 217.274 384.791 217.274L381.341 211.782Z" fill="#A5636D"/>
<path d="M398.2 195.044C398.2 195.044 384.615 184.812 386.53 172.351C388.445 159.89 398.2 181.89 398.2 181.89V195.044Z" fill="#5C5C8E"/>
<path d="M394.446 138.551C394.441 143.033 392.709 147.339 389.614 150.562C388.86 151.354 388.029 152.067 387.133 152.691C385.423 153.892 383.515 154.779 381.498 155.312C380.696 155.514 379.882 155.659 379.06 155.748C378.471 155.805 377.877 155.838 377.274 155.838C375.347 155.85 373.432 155.526 371.615 154.882C368.639 153.836 366.007 151.986 364.006 149.535C362.005 147.084 360.713 144.125 360.271 140.984C359.829 137.842 360.255 134.639 361.501 131.725C362.747 128.811 364.765 126.298 367.336 124.461C369.906 122.625 372.928 121.536 376.072 121.314C379.216 121.092 382.36 121.745 385.159 123.202C387.959 124.659 390.306 126.864 391.944 129.574C393.582 132.285 394.448 135.397 394.446 138.57V138.551Z" fill="#A5636D"/>
<path opacity="0.1" d="M459.604 217.446C458.065 217.733 456.164 218.249 456.164 219.053C456.164 220.407 434.696 227.702 434.696 227.702C434.696 227.702 435.499 229.586 433.357 232.83C431.214 236.073 413.766 254.71 413.766 254.71L413.823 255.264L414.046 257.412L415.111 267.678C415.111 267.678 408.401 265.248 406.254 265.516C405.56 265.606 404.828 265.157 404.111 264.511C404.376 263.283 404.859 262.113 405.536 261.057C405.536 261.057 407.275 259.68 409.898 257.857V223.416L455.48 212.275L459.609 216.412C459.63 216.757 459.629 217.102 459.604 217.446V217.446Z" fill="black"/>
<path d="M461.533 215.542C461.533 215.542 456.164 216.078 456.164 217.431C456.164 218.785 434.696 226.08 434.696 226.08C434.696 226.08 435.499 227.965 433.357 231.208C431.214 234.451 413.766 253.093 413.766 253.093L415.111 266.056C415.111 266.056 408.401 263.626 406.254 263.894C405.303 264.014 404.234 263.124 403.355 262.086C402.629 261.22 401.981 260.29 401.421 259.307C401.421 259.307 403.84 249.036 400.618 246.606C397.397 244.176 404.106 226.348 404.106 226.348C404.106 226.348 407.137 213.672 406.244 208.233C406.189 207.869 406.103 207.51 405.988 207.161C405.988 207.123 405.964 207.08 405.95 207.042C404.049 201.847 383.446 158.249 383.446 158.249C383.459 157.013 383.545 155.778 383.703 154.552C383.745 154.212 383.802 153.858 383.864 153.499C383.969 152.854 384.108 152.215 384.282 151.586C384.391 151.182 384.522 150.785 384.672 150.395C385.309 148.749 386.283 147.482 387.737 147.453C387.737 147.453 389.348 145.659 393.125 145.171C395.89 144.808 399.839 145.171 405.185 147.453C417.79 152.849 420.746 153.126 420.746 153.126L427.08 161.497L428.382 163.215C433.154 169.481 437.475 176.083 441.311 182.971C443.42 186.798 446.409 191.241 449.992 193.915C457.238 199.335 461.533 215.542 461.533 215.542Z" fill="#F7CDDD"/>
<path opacity="0.1" d="M414.502 184.305C414.502 184.305 432.416 188.764 439.358 200.005L414.502 184.305Z" fill="black"/>
<path opacity="0.1" d="M420.038 204.057C420.038 204.057 423.426 226.955 422.485 228.677C421.544 230.4 420.038 204.057 420.038 204.057Z" fill="black"/>
<path opacity="0.1" d="M418.826 215.81C417.524 217.527 412.236 230.801 412.236 230.801L413.761 253.093L415.106 266.056C415.106 266.056 408.401 263.626 406.254 263.894C405.303 264.014 404.229 263.124 403.355 262.086C404.747 254.494 407.727 238.608 408.264 238.302C408.972 237.895 412.597 225.133 412.787 221.56C412.977 217.986 418.014 210.022 418.014 210.022C418.014 210.022 420.138 214.092 418.826 215.81Z" fill="black"/>
<path opacity="0.1" d="M413.766 193.93C413.433 194.939 412.92 200.818 412.92 200.818C412.549 205.994 408.644 207.687 406.244 208.233C406.189 207.869 406.103 207.51 405.988 207.161C404.377 202.574 383.446 158.268 383.446 158.268C383.468 156.021 383.749 153.783 384.282 151.6C388.839 150.251 396.052 152.327 396.052 152.327C398.138 152.05 404.942 165.669 404.942 165.669C404.942 165.669 409.475 176.097 409.974 177.517C410.473 178.938 409.974 181.268 410.174 182.081C410.373 182.894 412.492 183.593 412.792 184.712C413.091 185.831 412.896 188.06 413.096 188.457C413.295 188.854 414.103 192.916 413.766 193.93Z" fill="black"/>
<path d="M412.155 193.117C411.822 194.131 411.309 200.005 411.309 200.005C411.005 204.31 408.249 206.224 405.95 207.042C404.913 207.415 403.827 207.632 402.728 207.687L399.492 210.519L384.548 221.593C384.548 221.593 378.98 211.227 380.491 211.17C382.002 211.112 390.716 203.746 390.716 203.746C393.382 202.311 396.052 197.527 397.292 195.068C397.221 194.775 397.167 194.478 397.131 194.179C396.594 189.591 385.323 172.026 385.323 172.026C385.323 172.026 380.966 166.864 379.27 157.302C379.222 157.082 379.189 156.857 379.146 156.628C379.098 156.33 379.069 156.03 379.06 155.728C378.856 152.05 381.517 150.71 384.672 150.395C386.32 150.263 387.977 150.314 389.614 150.548C391.244 150.755 392.859 151.074 394.446 151.505C395.795 151.323 399.122 156.972 401.303 160.976C402.476 163.148 403.322 164.841 403.322 164.841C403.322 164.841 407.855 175.274 408.354 176.69C408.853 178.106 408.354 180.445 408.553 181.253C408.753 182.062 410.872 182.77 411.172 183.889C411.471 185.008 411.276 187.238 411.476 187.635C411.675 188.032 412.492 192.102 412.155 193.117Z" fill="#F7CDDD"/>
<path opacity="0.1" d="M429.489 169.744C426.638 172.676 422.033 172.686 418.337 171.179C414.64 169.672 411.509 166.975 408.083 164.875C405.859 163.506 403.502 162.387 401.312 160.976C400.989 160.765 400.675 160.555 400.362 160.335C397.834 158.536 395.643 156.226 393.025 154.595C391.274 153.422 389.235 152.76 387.133 152.681C386.166 152.673 385.208 152.875 384.325 153.274C384.162 153.341 384.003 153.42 383.85 153.509C382.988 154.006 382.19 154.609 381.474 155.303C380.733 155.972 380.025 156.685 379.246 157.312C379.198 157.092 379.165 156.867 379.122 156.637C379.074 156.34 379.045 156.039 379.037 155.738C378.447 155.795 377.854 155.829 377.25 155.829C375.323 155.84 373.409 155.516 371.591 154.872C371.591 154.8 371.591 154.729 371.548 154.657C370.907 151.251 369.747 147.644 367.025 145.731C365.447 144.621 362.929 144.167 360.743 143.339C359.986 140.685 359.871 137.886 360.409 135.178C360.946 132.47 362.12 129.931 363.833 127.773C365.545 125.616 367.746 123.903 370.252 122.778C372.757 121.653 375.493 121.148 378.232 121.306C380.971 121.465 383.632 122.281 385.993 123.688C388.354 125.094 390.346 127.05 391.802 129.39C393.258 131.731 394.135 134.388 394.361 137.141C394.588 139.893 394.155 142.66 393.101 145.209C395.867 144.846 399.815 145.209 405.161 147.491C417.767 152.887 420.722 153.164 420.722 153.164L427.056 161.536C426.372 162.588 425.597 163.626 425.526 164.855C425.407 167.108 427.588 168.682 429.489 169.744Z" fill="black"/>
<path d="M367.044 144.1C369.766 146.013 370.926 149.615 371.572 153.016C371.772 154.078 371.962 155.197 372.608 156.039C374.033 157.924 376.96 157.393 378.847 156.039C380.733 154.686 382.22 152.633 384.325 151.677C387.119 150.404 390.407 151.332 393.025 152.983C395.643 154.633 397.834 156.943 400.362 158.723C402.809 160.459 405.536 161.698 408.083 163.262C411.509 165.362 414.64 168.075 418.337 169.567C422.034 171.06 426.652 171.055 429.484 168.132C427.583 167.07 425.402 165.501 425.55 163.224C425.697 160.947 428.329 159.249 428.154 156.915C427.978 154.58 425.25 153.667 423.293 152.519C419.206 150.127 417.463 144.865 416.588 140.01C415.909 136.212 415.348 131.969 412.53 129.529C410.711 127.96 408.254 127.448 406.42 125.893C404.686 124.415 403.721 122.181 402.619 120.12C400.799 116.69 398.409 113.499 395.249 111.447C392.089 109.395 388.069 108.577 384.601 109.983C383.27 110.514 382.059 111.337 380.747 111.897C377.478 113.332 373.739 113.126 370.503 114.623C366.516 116.47 363.927 120.545 361.556 124.415C359.551 127.73 355.573 133.576 356.7 137.881C357.821 142.258 364.088 142.024 367.044 144.1Z" fill="#4C3E42"/>
<g opacity="0.1">
<path opacity="0.1" d="M428.149 156.652C428.134 156.474 428.104 156.298 428.059 156.125C427.336 157.269 426.438 158.378 426.353 159.718C426.334 160.028 426.36 160.339 426.429 160.641C427.232 159.354 428.263 158.144 428.149 156.652Z" fill="black"/>
<path opacity="0.1" d="M419.14 166.075C415.443 164.583 412.317 161.87 408.891 159.77C406.339 158.206 403.612 156.967 401.165 155.231C398.637 153.432 396.446 151.122 393.828 149.491C391.21 147.859 387.927 146.912 385.128 148.18C383.023 149.137 381.541 151.17 379.65 152.547C377.759 153.925 374.86 154.461 373.411 152.547C372.765 151.705 372.575 150.586 372.375 149.524C371.734 146.123 370.569 142.521 367.851 140.608C364.891 138.527 358.624 138.761 357.488 134.389C357.299 133.607 357.249 132.797 357.341 131.997C356.614 133.949 356.239 135.91 356.681 137.618C357.821 142.009 364.088 141.775 367.044 143.836C369.766 145.75 370.926 149.357 371.572 152.758C371.772 153.82 371.962 154.939 372.603 155.781C374.029 157.666 376.955 157.135 378.847 155.757C380.738 154.379 382.215 152.351 384.325 151.394C387.119 150.127 390.407 151.055 393.025 152.705C395.643 154.355 397.834 156.666 400.362 158.445C402.809 160.187 405.536 161.421 408.083 162.985C411.509 165.09 414.64 167.802 418.337 169.295C422.034 170.787 426.652 170.777 429.484 167.859C428.751 167.463 428.056 167.001 427.408 166.477C424.832 167.429 421.758 167.132 419.14 166.075Z" fill="black"/>
</g>
<path d="M335.042 198.795L373.054 184.501C373.499 184.334 373.972 184.256 374.447 184.272C374.921 184.288 375.388 184.399 375.82 184.597C376.252 184.795 376.641 185.077 376.965 185.427C377.288 185.777 377.54 186.187 377.706 186.635V186.635C377.872 187.083 377.949 187.559 377.932 188.037C377.915 188.515 377.805 188.984 377.608 189.419C377.41 189.854 377.13 190.246 376.783 190.571C376.435 190.897 376.027 191.151 375.582 191.318L337.57 205.616L329.426 204.793L335.042 198.795Z" fill="#5C5C8E"/>
<path opacity="0.1" d="M376.552 185.487C376.887 186.392 376.852 187.394 376.453 188.273C376.055 189.152 375.327 189.836 374.428 190.175L336.415 204.468L330.295 203.851L329.416 204.808L337.56 205.63L375.573 191.332C376.018 191.165 376.426 190.912 376.773 190.586C377.121 190.26 377.401 189.869 377.598 189.434C377.795 188.999 377.906 188.529 377.923 188.051C377.939 187.574 377.863 187.097 377.697 186.649V186.649C377.418 185.895 376.898 185.256 376.219 184.831C376.35 185.039 376.461 185.258 376.552 185.487Z" fill="white"/>
<path d="M335.042 198.795L337.575 205.616L330.889 204.942L329.426 204.793L331.426 202.66L335.042 198.795Z" fill="#EFC8C4"/>
<path d="M331.421 202.66C331.579 202.776 331.711 202.922 331.811 203.09C331.874 203.19 331.908 203.305 331.908 203.423C331.908 203.541 331.874 203.656 331.811 203.755C331.701 203.861 331.576 203.95 331.44 204.018C331.286 204.121 331.157 204.257 331.063 204.417C330.969 204.577 330.913 204.756 330.899 204.942L329.435 204.793L331.421 202.66Z" fill="#727A9C"/>
<path d="M301.862 124.884L295.452 121.737C295.361 121.692 295.279 121.629 295.211 121.552C295.144 121.476 295.092 121.386 295.059 121.289C295.026 121.193 295.012 121.09 295.019 120.988C295.025 120.886 295.051 120.786 295.096 120.694L295.775 119.287C295.819 119.195 295.881 119.112 295.957 119.044C296.033 118.976 296.122 118.923 296.219 118.89C296.315 118.857 296.417 118.843 296.519 118.85C296.62 118.856 296.72 118.883 296.811 118.929L301.13 121.048L305.639 111.739C305.73 111.553 305.889 111.411 306.083 111.343C306.277 111.274 306.49 111.286 306.675 111.375L308.072 112.064C308.164 112.109 308.246 112.171 308.314 112.248C308.382 112.324 308.434 112.414 308.467 112.511C308.5 112.608 308.514 112.71 308.507 112.813C308.5 112.915 308.474 113.015 308.429 113.107L302.898 124.525C302.853 124.617 302.791 124.7 302.715 124.767C302.639 124.835 302.55 124.887 302.454 124.921C302.357 124.954 302.256 124.968 302.154 124.962C302.053 124.955 301.953 124.929 301.862 124.884V124.884Z" fill="#3ACC6C"/>
<path d="M315.865 165.147L309.455 162C309.363 161.955 309.282 161.892 309.214 161.815C309.147 161.739 309.095 161.649 309.062 161.553C309.029 161.456 309.015 161.353 309.021 161.251C309.028 161.149 309.054 161.049 309.099 160.957L309.778 159.55C309.869 159.364 310.03 159.222 310.225 159.155C310.42 159.087 310.633 159.101 310.819 159.192L315.133 161.311L319.637 151.992C319.728 151.807 319.887 151.664 320.081 151.596C320.275 151.528 320.488 151.54 320.673 151.629L322.065 152.318C322.157 152.362 322.24 152.424 322.307 152.501C322.375 152.578 322.427 152.667 322.461 152.764C322.495 152.861 322.509 152.963 322.503 153.066C322.497 153.168 322.471 153.268 322.427 153.361L316.896 164.779C316.804 164.964 316.643 165.106 316.448 165.173C316.254 165.24 316.041 165.227 315.855 165.138L315.865 165.147Z" fill="#3ACC6C"/>
<path d="M309.578 145.3L303.169 142.153C302.984 142.062 302.842 141.901 302.775 141.706C302.707 141.511 302.719 141.297 302.807 141.11L303.492 139.704C303.536 139.611 303.598 139.528 303.674 139.46C303.75 139.392 303.839 139.34 303.935 139.306C304.031 139.273 304.133 139.259 304.235 139.266C304.337 139.272 304.436 139.299 304.527 139.345L308.847 141.464L313.356 132.141C313.4 132.049 313.463 131.966 313.539 131.899C313.615 131.831 313.704 131.779 313.8 131.745C313.896 131.712 313.998 131.698 314.099 131.704C314.201 131.711 314.3 131.737 314.392 131.782L315.789 132.466C315.973 132.559 316.113 132.72 316.18 132.916C316.247 133.112 316.234 133.327 316.145 133.514L310.609 144.941C310.565 145.034 310.503 145.116 310.426 145.184C310.35 145.251 310.262 145.304 310.165 145.337C310.069 145.37 309.967 145.384 309.866 145.378C309.764 145.372 309.665 145.345 309.574 145.3H309.578Z" fill="#3ACC6C"/>
<path d="M321.947 183.325L315.537 180.177C315.445 180.132 315.364 180.07 315.296 179.993C315.229 179.916 315.177 179.827 315.144 179.73C315.111 179.633 315.097 179.531 315.103 179.429C315.11 179.326 315.136 179.226 315.181 179.134L315.86 177.728C315.905 177.636 315.967 177.554 316.043 177.486C316.119 177.418 316.208 177.366 316.304 177.333C316.4 177.299 316.502 177.285 316.604 177.292C316.705 177.298 316.804 177.324 316.896 177.369L321.215 179.488L325.724 170.179C325.815 169.993 325.976 169.851 326.17 169.783C326.365 169.715 326.579 169.727 326.765 169.816L328.157 170.505C328.249 170.549 328.331 170.612 328.399 170.688C328.467 170.765 328.518 170.854 328.552 170.951C328.585 171.048 328.598 171.151 328.592 171.253C328.585 171.356 328.559 171.456 328.513 171.548L322.987 182.966C322.895 183.151 322.735 183.293 322.54 183.36C322.345 183.427 322.132 183.414 321.947 183.325V183.325Z" fill="#3ACC6C"/>
<path d="M82.3065 306.912C82.3065 306.912 85.1337 310.634 81.0046 316.25C76.8755 321.866 73.4639 326.611 74.8276 330.122C74.8276 330.122 81.0616 319.689 86.1315 319.546C91.2014 319.402 87.8848 313.188 82.3065 306.912Z" fill="#3ACC6C"/>
<path opacity="0.1" d="M82.3065 306.912C82.554 307.272 82.7492 307.665 82.8862 308.08C87.8326 313.935 90.4887 319.397 85.7134 319.56C81.2802 319.684 75.9632 327.663 74.6945 329.677C74.7327 329.84 74.782 330 74.8418 330.156C74.8418 330.156 81.0759 319.723 86.1458 319.579C91.2157 319.436 87.8848 313.188 82.3065 306.912Z" fill="black"/>
<path d="M87.5617 311.658C87.5617 312.964 87.4144 314.049 87.2339 314.049C87.0533 314.049 86.9108 312.988 86.9108 311.658C86.9108 310.328 87.0913 310.964 87.2719 310.964C87.4525 310.964 87.5617 310.347 87.5617 311.658Z" fill="#FFD037"/>
<path d="M89.3626 313.217C88.2222 313.844 87.2244 314.226 87.1389 314.064C87.0533 313.901 87.9086 313.27 89.0395 312.629C90.1704 311.988 89.7285 312.457 89.814 312.629C89.8995 312.801 90.5077 312.59 89.3626 313.217Z" fill="#FFD037"/>
<path d="M67.3771 306.912C67.3771 306.912 64.5547 310.634 68.6838 316.25C72.8129 321.866 76.2198 326.611 74.8608 330.122C74.8608 330.122 68.6315 319.689 63.5569 319.546C58.4822 319.402 61.7988 313.188 67.3771 306.912Z" fill="#3ACC6C"/>
<path opacity="0.1" d="M67.3771 306.912C67.1325 307.273 66.939 307.666 66.8022 308.08C61.851 313.935 59.1997 319.397 63.975 319.56C68.4034 319.684 73.7204 327.663 74.9939 329.677C74.954 329.84 74.9032 330 74.8418 330.156C74.8418 330.156 68.6125 319.68 63.5283 319.536C58.4442 319.393 61.7988 313.188 67.3771 306.912Z" fill="black"/>
<path d="M62.1266 311.658C62.1266 312.964 62.2692 314.049 62.4498 314.049C62.6303 314.049 62.7776 312.988 62.7776 311.658C62.7776 310.328 62.5971 310.964 62.4165 310.964C62.2359 310.964 62.1266 310.347 62.1266 311.658Z" fill="#FFD037"/>
<path d="M60.321 313.217C61.4662 313.844 62.4592 314.226 62.5448 314.064C62.6303 313.901 61.775 313.27 60.6441 312.629C59.5133 311.988 59.9504 312.457 59.8649 312.629C59.7794 312.801 59.1807 312.59 60.321 313.217Z" fill="#FFD037"/>
<path opacity="0.1" d="M74.8466 358.575C91.1666 358.575 104.397 356.532 104.397 354.011C104.397 351.491 91.1666 349.448 74.8466 349.448C58.5266 349.448 45.2966 351.491 45.2966 354.011C45.2966 356.532 58.5266 358.575 74.8466 358.575Z" fill="#6C63FF"/>
<path d="M90.0516 325.099L89.909 326.262L89.7142 327.903L89.6287 328.587L89.4339 330.227L89.3436 330.911L89.1488 332.552L86.887 351.208C86.6827 352.873 83.9791 354.174 80.71 354.174H68.9689C65.7046 354.174 63.0057 352.873 62.7919 351.208L60.5301 332.552L60.3306 330.911L60.2498 330.227L60.0455 328.587L59.9647 327.903L59.7651 326.262L59.6226 325.099C59.5133 324.143 60.972 323.358 62.8204 323.358H86.8585C88.7116 323.358 90.1704 324.157 90.0516 325.099Z" fill="#65617D"/>
<path d="M89.9138 326.262L89.7142 327.903H59.9742L59.7794 326.262H89.9138Z" fill="#9D9CB5"/>
<path d="M89.6334 328.587L89.4339 330.227H60.2593L60.0597 328.587H89.6334Z" fill="#9D9CB5"/>
<path d="M89.3483 330.911L89.1488 332.552H60.5396L60.3401 330.911H89.3483Z" fill="#9D9CB5"/>
</g>
<defs>
<linearGradient id="paint0_linear" x1="407.608" y1="337.589" x2="407.608" y2="106.731" gradientUnits="userSpaceOnUse">
<stop stop-color="#808080" stop-opacity="0.25"/>
<stop offset="0.54" stop-color="#808080" stop-opacity="0.12"/>
<stop offset="1" stop-color="#808080" stop-opacity="0.1"/>
</linearGradient>
<clipPath id="clip0">
<rect width="549" height="381" fill="white"/>
</clipPath>
</defs>
</svg>
